<svg width="637" height="301" viewBox="0 0 637 301" fill="none" xmlns="http://www.w3.org/2000/svg">
<g filter="url(#filter0_d_21_56)">
<path d="M40.3288 100H12.7454V2.33333H67.7454V23.5833L40.3288 21.9167V44.5833H62.8288V65.25L40.3288 63.5833V100ZM122.43 100L118.68 84.4167H95.013L91.8464 100H67.3464L92.763 9.08334L90.763 2.33333H125.18L153.013 100H122.43ZM105.763 31L98.4297 67.4167H114.596L105.763 31ZM217.967 93.0833L217.217 94C216.661 94.5556 215.717 95.2778 214.383 96.1667C213.106 97 211.55 97.8611 209.717 98.75C207.939 99.5833 205.55 100.278 202.55 100.833C199.55 101.444 196.328 101.75 192.883 101.75C185.606 101.75 179.383 100.556 174.217 98.1667C169.05 95.7222 164.995 92.1944 162.05 87.5833C159.161 82.9167 157.078 77.6667 155.8 71.8333C154.522 65.9444 153.883 59.1389 153.883 51.4167C153.883 43.1944 154.522 36.1111 155.8 30.1667C157.078 24.1667 159.189 18.9167 162.133 14.4167C165.133 9.86111 169.245 6.44445 174.467 4.16667C179.689 1.88889 186.05 0.750004 193.55 0.750004C196.995 0.750004 200.217 1.05556 203.217 1.66667C206.272 2.27778 208.661 2.97222 210.383 3.75C212.161 4.52778 213.745 5.41667 215.133 6.41667C216.578 7.41667 217.467 8.11111 217.8 8.5C218.189 8.88889 218.467 9.19445 218.633 9.41667L217.383 28.5833H204.717L200.383 18.6667C199.383 18.3889 198.55 18.25 197.883 18.25C194.161 18.25 191.3 19.1111 189.3 20.8333C187.3 22.5 185.772 25.8056 184.717 30.75C183.661 35.6389 183.133 42.6944 183.133 51.9167C183.133 57.4167 183.467 62.2222 184.133 66.3333C184.856 70.4444 185.717 73.6111 186.717 75.8333C187.717 78 188.911 79.75 190.3 81.0833C191.689 82.4167 192.939 83.2778 194.05 83.6667C195.161 84 196.356 84.1667 197.633 84.1667C200.467 84.1667 203.439 83.8333 206.55 83.1667C209.661 82.4444 212.217 81.3611 214.217 79.9167L217.967 93.0833ZM284.475 100H225.392V2.33333H283.225L281.559 22L252.975 21.1667V40H275.475V59.5L252.975 57.8333V80L284.475 79.1667V100ZM326.042 83.6667C329.987 83.6667 332.876 82.5556 334.709 80.3333C336.542 78.1111 337.459 75.4722 337.459 72.4167V66.5833C337.459 62.9722 336.292 60.4167 333.959 58.9167C331.626 57.3611 328.987 56.5833 326.042 56.5833H319.542V83.6667H326.042ZM336.292 27.3333C336.292 24 335.376 21.6944 333.542 20.4167C331.709 19.0833 329.07 18.4167 325.626 18.4167H319.542V42.5H326.292C329.515 42.5 331.987 41.25 333.709 38.75C335.431 36.1944 336.292 33.0833 336.292 29.4167V27.3333ZM331.709 100.75C327.376 100.75 321.765 100.639 314.876 100.417C307.987 100.194 303.042 100.056 300.042 100H292.042V2.33333H306.459C309.959 2.33333 313.959 2.22222 318.459 2C322.959 1.72223 326.209 1.58334 328.209 1.58334C334.709 1.58334 340.181 2.11111 344.626 3.16667C349.126 4.22223 352.653 5.80556 355.209 7.91667C357.765 10.0278 359.57 12.4722 360.626 15.25C361.737 18.0278 362.292 21.3333 362.292 25.1667C362.292 31.0556 360.931 36.1111 358.209 40.3333C355.487 44.5556 351.542 47.1944 346.376 48.25C359.487 49.4167 366.042 57.1111 366.042 71.3333C366.042 75.6111 365.403 79.5 364.126 83C362.848 86.4444 360.876 89.5278 358.209 92.25C355.598 94.9167 352.042 97 347.542 98.5C343.042 100 337.765 100.75 331.709 100.75ZM402.079 62.25C402.079 71.4722 402.774 77.8889 404.163 81.5C405.607 85.1111 408.107 86.9167 411.663 86.9167C414.274 86.9167 416.246 86.2778 417.579 85C418.913 83.6667 419.913 80.9722 420.579 76.9167C421.302 72.8056 421.663 66.6667 421.663 58.5V38.4167C421.663 30.4722 420.885 24.5556 419.329 20.6667C417.774 16.7778 415.218 14.8333 411.663 14.8333C408.107 14.8333 405.607 16.75 404.163 20.5833C402.774 24.3611 402.079 31.2778 402.079 41.3333V62.25ZM409.913 101.75C405.302 101.75 401.135 101.333 397.413 100.5C393.746 99.6667 390.579 98.5 387.913 97C385.246 95.5 382.913 93.5833 380.913 91.25C378.968 88.9167 377.385 86.4167 376.163 83.75C374.996 81.0833 374.052 77.9722 373.329 74.4167C372.607 70.8056 372.107 67.2222 371.829 63.6667C371.552 60.0556 371.413 56 371.413 51.5C371.413 44.8333 371.746 39.0278 372.413 34.0833C373.135 29.1389 374.441 24.5 376.329 20.1667C378.218 15.7778 380.718 12.2222 383.829 9.5C386.996 6.77778 391.052 4.63889 395.996 3.08333C400.996 1.52778 406.885 0.750004 413.663 0.750004C418.329 0.750004 422.524 1.19445 426.246 2.08334C429.968 2.91667 433.163 4.08334 435.829 5.58334C438.496 7.08334 440.802 9.02778 442.746 11.4167C444.746 13.8056 446.329 16.3611 447.496 19.0833C448.718 21.75 449.691 24.8889 450.413 28.5C451.135 32.1111 451.635 35.6944 451.913 39.25C452.191 42.8056 452.329 46.8333 452.329 51.3333C452.329 58 451.968 63.8056 451.246 68.75C450.524 73.6944 449.218 78.3333 447.329 82.6667C445.441 86.9444 442.913 90.4444 439.746 93.1667C436.579 95.8333 432.496 97.9444 427.496 99.5C422.552 101 416.691 101.75 409.913 101.75ZM489.238 62.25C489.238 71.4722 489.932 77.8889 491.321 81.5C492.765 85.1111 495.265 86.9167 498.821 86.9167C501.432 86.9167 503.404 86.2778 504.738 85C506.071 83.6667 507.071 80.9722 507.738 76.9167C508.46 72.8056 508.821 66.6667 508.821 58.5V38.4167C508.821 30.4722 508.043 24.5556 506.488 20.6667C504.932 16.7778 502.377 14.8333 498.821 14.8333C495.265 14.8333 492.765 16.75 491.321 20.5833C489.932 24.3611 489.238 31.2778 489.238 41.3333V62.25ZM497.071 101.75C492.46 101.75 488.293 101.333 484.571 100.5C480.904 99.6667 477.738 98.5 475.071 97C472.404 95.5 470.071 93.5833 468.071 91.25C466.127 88.9167 464.543 86.4167 463.321 83.75C462.154 81.0833 461.21 77.9722 460.488 74.4167C459.765 70.8056 459.265 67.2222 458.988 63.6667C458.71 60.0556 458.571 56 458.571 51.5C458.571 44.8333 458.904 39.0278 459.571 34.0833C460.293 29.1389 461.599 24.5 463.488 20.1667C465.377 15.7778 467.877 12.2222 470.988 9.5C474.154 6.77778 478.21 4.63889 483.154 3.08333C488.154 1.52778 494.043 0.750004 500.821 0.750004C505.488 0.750004 509.682 1.19445 513.404 2.08334C517.127 2.91667 520.321 4.08334 522.988 5.58334C525.654 7.08334 527.96 9.02778 529.904 11.4167C531.904 13.8056 533.488 16.3611 534.654 19.0833C535.877 21.75 536.849 24.8889 537.571 28.5C538.293 32.1111 538.793 35.6944 539.071 39.25C539.349 42.8056 539.488 46.8333 539.488 51.3333C539.488 58 539.127 63.8056 538.404 68.75C537.682 73.6944 536.377 78.3333 534.488 82.6667C532.599 86.9444 530.071 90.4444 526.904 93.1667C523.738 95.8333 519.654 97.9444 514.654 99.5C509.71 101 503.849 101.75 497.071 101.75ZM595.396 100C594.729 99.1667 593.285 95.9167 591.062 90.25C588.896 84.5278 586.34 78.0833 583.396 70.9167C580.507 63.6944 577.951 58.2222 575.729 54.5V100H548.146V2.33333H575.729V49.0833L596.479 2.33333H624.229L599.396 48.1667C601.007 49.2778 603.146 52.3056 605.812 57.25C608.479 62.1944 610.979 67.3889 613.312 72.8333C615.646 78.2778 618.062 83.75 620.563 89.25C623.062 94.6944 624.896 98.2778 626.062 100H595.396ZM4.04427 290V133.733H49.5109V290H4.04427ZM114.24 292.8C107.396 292.8 100.996 292.178 95.0401 290.933C89.1734 289.778 84.2401 288.222 80.2401 286.267C76.2401 284.311 72.9512 282.444 70.3734 280.667C67.8845 278.889 65.7957 277.111 64.1068 275.333L67.4401 242.933C71.0845 247.822 75.9734 252.089 82.1068 255.733C88.2401 259.289 94.8623 261.067 101.973 261.067C109.085 261.067 114.196 260.311 117.307 258.8C120.507 257.289 122.107 254.533 122.107 250.533C122.107 246.267 120.285 242.622 116.64 239.6C113.085 236.578 106.907 232.933 98.1068 228.667C94.9068 227.067 92.1957 225.644 89.9734 224.4C87.7512 223.067 84.7734 220.933 81.0401 218C77.3957 214.978 74.4179 211.867 72.1068 208.667C69.7957 205.378 67.7512 201.2 65.9734 196.133C64.1957 190.978 63.3068 185.467 63.3068 179.6C63.3068 147.867 81.2179 132 117.04 132C122.729 132 128.062 132.622 133.04 133.867C138.107 135.022 142.062 136.311 144.907 137.733C147.751 139.156 150.329 140.844 152.64 142.8C155.04 144.667 156.551 146 157.173 146.8C157.796 147.511 158.24 148.089 158.507 148.533L151.84 174.267C148.373 170.178 144.018 167.156 138.773 165.2C133.618 163.156 128.685 162.133 123.973 162.133C112.596 162.133 106.907 165.689 106.907 172.8C106.907 174.667 107.262 176.356 107.973 177.867C108.685 179.378 109.84 180.756 111.44 182C113.04 183.244 114.507 184.311 115.84 185.2C117.262 186.089 119.173 187.2 121.573 188.533C124.062 189.778 125.929 190.8 127.173 191.6C140.151 197.111 149.662 203.644 155.707 211.2C161.84 218.756 164.907 227.956 164.907 238.8C164.907 256.4 160.551 269.822 151.84 279.067C143.218 288.222 130.685 292.8 114.24 292.8ZM225.568 292.8C218.724 292.8 212.324 292.178 206.368 290.933C200.502 289.778 195.568 288.222 191.568 286.267C187.568 284.311 184.279 282.444 181.702 280.667C179.213 278.889 177.124 277.111 175.435 275.333L178.768 242.933C182.413 247.822 187.302 252.089 193.435 255.733C199.568 259.289 206.19 261.067 213.302 261.067C220.413 261.067 225.524 260.311 228.635 258.8C231.835 257.289 233.435 254.533 233.435 250.533C233.435 246.267 231.613 242.622 227.968 239.6C224.413 236.578 218.235 232.933 209.435 228.667C206.235 227.067 203.524 225.644 201.302 224.4C199.079 223.067 196.102 220.933 192.368 218C188.724 214.978 185.746 211.867 183.435 208.667C181.124 205.378 179.079 201.2 177.302 196.133C175.524 190.978 174.635 185.467 174.635 179.6C174.635 147.867 192.546 132 228.368 132C234.057 132 239.39 132.622 244.368 133.867C249.435 135.022 253.39 136.311 256.235 137.733C259.079 139.156 261.657 140.844 263.968 142.8C266.368 144.667 267.879 146 268.502 146.8C269.124 147.511 269.568 148.089 269.835 148.533L263.168 174.267C259.702 170.178 255.346 167.156 250.102 165.2C244.946 163.156 240.013 162.133 235.302 162.133C223.924 162.133 218.235 165.689 218.235 172.8C218.235 174.667 218.59 176.356 219.302 177.867C220.013 179.378 221.168 180.756 222.768 182C224.368 183.244 225.835 184.311 227.168 185.2C228.59 186.089 230.502 187.2 232.902 188.533C235.39 189.778 237.257 190.8 238.502 191.6C251.479 197.111 260.99 203.644 267.035 211.2C273.168 218.756 276.235 227.956 276.235 238.8C276.235 256.4 271.879 269.822 263.168 279.067C254.546 288.222 242.013 292.8 225.568 292.8ZM350.763 292.8C341.607 292.8 333.474 291.911 326.363 290.133C319.341 288.356 313.563 285.956 309.03 282.933C304.585 279.911 300.896 276.178 297.963 271.733C295.119 267.2 293.119 262.444 291.963 257.467C290.807 252.489 290.23 246.978 290.23 240.933V133.733H337.696V234.933C337.696 246.222 338.852 254 341.163 258.267C343.563 262.444 347.03 264.533 351.563 264.533C354.052 264.533 356.23 264.133 358.096 263.333C359.963 262.444 361.696 260.978 363.296 258.933C364.896 256.8 366.096 253.778 366.896 249.867C367.785 245.867 368.23 241.022 368.23 235.333V133.733H410.363V241.733C410.363 247.689 409.83 253.067 408.763 257.867C407.785 262.667 405.919 267.333 403.163 271.867C400.496 276.311 396.941 280.044 392.496 283.067C388.141 286 382.407 288.356 375.296 290.133C368.274 291.911 360.096 292.8 350.763 292.8ZM522.787 290H428.254V133.733H520.787L518.12 165.2L472.387 163.867V194H508.387V225.2L472.387 222.533V258L522.787 256.667V290ZM581.428 292.8C574.583 292.8 568.183 292.178 562.228 290.933C556.361 289.778 551.428 288.222 547.428 286.267C543.428 284.311 540.139 282.444 537.561 280.667C535.072 278.889 532.983 277.111 531.294 275.333L534.628 242.933C538.272 247.822 543.161 252.089 549.294 255.733C555.428 259.289 562.05 261.067 569.161 261.067C576.272 261.067 581.383 260.311 584.494 258.8C587.694 257.289 589.294 254.533 589.294 250.533C589.294 246.267 587.472 242.622 583.828 239.6C580.272 236.578 574.094 232.933 565.294 228.667C562.094 227.067 559.383 225.644 557.161 224.4C554.939 223.067 551.961 220.933 548.228 218C544.583 214.978 541.605 211.867 539.294 208.667C536.983 205.378 534.939 201.2 533.161 196.133C531.383 190.978 530.494 185.467 530.494 179.6C530.494 147.867 548.405 132 584.228 132C589.916 132 595.25 132.622 600.228 133.867C605.294 135.022 609.25 136.311 612.094 137.733C614.939 139.156 617.516 140.844 619.828 142.8C622.228 144.667 623.739 146 624.361 146.8C624.983 147.511 625.428 148.089 625.694 148.533L619.028 174.267C615.561 170.178 611.205 167.156 605.961 165.2C600.805 163.156 595.872 162.133 591.161 162.133C579.783 162.133 574.094 165.689 574.094 172.8C574.094 174.667 574.45 176.356 575.161 177.867C575.872 179.378 577.028 180.756 578.628 182C580.228 183.244 581.694 184.311 583.028 185.2C584.45 186.089 586.361 187.2 588.761 188.533C591.25 189.778 593.116 190.8 594.361 191.6C607.339 197.111 616.85 203.644 622.894 211.2C629.028 218.756 632.094 227.956 632.094 238.8C632.094 256.4 627.739 269.822 619.028 279.067C610.405 288.222 597.872 292.8 581.428 292.8Z" fill="#0075FF"/>
</g>
<defs>
<filter id="filter0_d_21_56" x="0.0442505" y="0.75" width="636.05" height="300.05" filterUnits="userSpaceOnUse" color-interpolation-filters="sRGB">
<feFlood flood-opacity="0" result="BackgroundImageFix"/>
<feColorMatrix in="SourceAlpha" type="matrix" values="0 0 0 0 0 0 0 0 0 0 0 0 0 0 0 0 0 0 127 0" result="hardAlpha"/>
<feOffset dy="4"/>
<feGaussianBlur stdDeviation="2"/>
<feComposite in2="hardAlpha" operator="out"/>
<feColorMatrix type="matrix" values="0 0 0 0 0 0 0 0 0 0 0 0 0 0 0 0 0 0 0.25 0"/>
<feBlend mode="normal" in2="BackgroundImageFix" result="effect1_dropShadow_21_56"/>
<feBlend mode="normal" in="SourceGraphic" in2="effect1_dropShadow_21_56" result="shape"/>
</filter>
</defs>
</svg>
